<svg xmlns="http://www.w3.org/2000/svg" width="75" height="39" viewBox="0 0 75 39">
  <g fill="#FFFFFF" fill-rule="evenodd">
    <path d="M0 24L1.13566589 24 75 24 75 37.0769231 73.125 39 0 39 0 24zM4.89963504 27.8461538L3.75 29.0545124 3.75 33.9454876 4.89963504 35.1538462 8.12956204 35.1538462 9.27919708 33.9454876 9.27919708 29.0545124 8.12956204 27.8461538 4.89963504 27.8461538zM7.91058394 29.0545124C8.0310219 29.0545124 8.12956204 29.158086 8.12956204 29.284676L8.12956204 33.715324C8.12956204 33.841914 8.0310219 33.9454876 7.91058394 33.9454876L5.11861314 33.9454876C4.99817518 33.9454876 4.89963504 33.841914 4.89963504 33.715324L4.89963504 29.284676C4.89963504 29.158086 4.99817518 29.0545124 5.11861314 29.0545124L7.91058394 29.0545124zM13.1113139 27.8461538L13.1113139 35.1538462 14.2609489 35.1538462 14.2609489 32.1041793 15.3339416 32.1041793 17.2718978 35.1538462 18.5857664 35.1538462 16.6478102 32.1041793 18.5857664 32.1041793 18.5857664 27.8461538 13.1113139 27.8461538zM17.2171533 29.0545124C17.3375912 29.0545124 17.4361314 29.158086 17.4361314 29.284676L17.4361314 30.6656572C17.4361314 30.7922471 17.3375912 30.8958207 17.2171533 30.8958207L14.2609489 30.8958207 14.2609489 29.0545124 17.2171533 29.0545124zM22.4178832 27.8461538L22.4178832 35.1538462 23.5675182 35.1538462 23.5675182 27.8461538 22.4178832 27.8461538zM28.5492701 27.8461538L27.399635 29.0545124 27.399635 33.9454876 28.5492701 35.1538462 31.7791971 35.1538462 32.9288321 33.9454876 32.9288321 32.1041793 31.7791971 30.8958207 30.7390511 30.8958207 30.7390511 32.1041793 31.7791971 32.1041793 31.7791971 33.715324C31.7791971 33.841914 31.6806569 33.9454876 31.560219 33.9454876L28.7682482 33.9454876C28.6478102 33.9454876 28.5492701 33.841914 28.5492701 33.715324L28.5492701 29.284676C28.5492701 29.158086 28.6478102 29.0545124 28.7682482 29.0545124L31.560219 29.0545124C31.6806569 29.0545124 31.7791971 29.158086 31.7791971 29.284676L31.7791971 30.3549364 32.9288321 30.3549364 32.9288321 29.0545124 31.7791971 27.8461538 28.5492701 27.8461538zM36.7609489 27.8461538L36.7609489 35.1538462 37.9105839 35.1538462 37.9105839 27.8461538 36.7609489 27.8461538zM46.4507299 27.8461538L46.4507299 33.254997 42.9032847 27.8461538 41.7427007 27.8461538 41.7427007 35.1538462 42.8923358 35.1538462 42.8923358 29.745003 46.439781 35.1538462 47.600365 35.1538462 47.600365 27.8461538 46.4507299 27.8461538zM52.5821168 27.8461538L51.4324818 29.0545124 51.4324818 35.1538462 52.5821168 35.1538462 52.5821168 32.1041793 54.8266423 32.1041793 54.8266423 35.1538462 55.9762774 35.1538462 55.9762774 29.0545124 54.8266423 27.8461538 52.5821168 27.8461538zM54.6076642 29.0545124C54.7281022 29.0545124 54.8266423 29.158086 54.8266423 29.284676L54.8266423 30.8958207 52.5821168 30.8958207 52.5821168 29.284676C52.5821168 29.158086 52.6806569 29.0545124 52.8010949 29.0545124L54.6076642 29.0545124zM59.8083942 27.8461538L59.8083942 35.1538462 62.709854 35.1538462 62.709854 33.9454876 60.9580292 33.9454876 60.9580292 27.8461538 59.8083942 27.8461538zM67.6916058 27.8461538L66.5419708 29.0545124 66.5419708 30.262871 70.100365 32.4494246 70.100365 33.715324C70.100365 33.841914 70.0018248 33.9454876 69.8813869 33.9454876L67.9105839 33.9454876C67.790146 33.9454876 67.6916058 33.841914 67.6916058 33.715324L67.6916058 32.9672925 66.5419708 32.9672925 66.5419708 33.9454876 67.6916058 35.1538462 70.100365 35.1538462 71.25 33.9454876 71.25 32.0466384 67.6916058 29.8600848 67.6916058 29.284676C67.6916058 29.158086 67.790146 29.0545124 67.9105839 29.0545124L69.8813869 29.0545124C70.0018248 29.0545124 70.100365 29.158086 70.100365 29.284676L70.100365 30.0327075 71.25 30.0327075 71.25 29.0545124 70.100365 27.8461538 67.6916058 27.8461538zM3.90806646 3.45083102L.383910522 3.45083102C.12547242 3.45083102-.0389881903 3.24515235.00800055553 2.99376731L.52487676.708448753C.571865506.457063712.830303608.251385042 1.08874171.251385042L11.6612095.251385042C11.9196476.251385042 12.0841082.457063712 12.0371195.708448753L11.5202433 2.99376731C11.4732545 3.24515235 11.2148164 3.45083102 10.9563783 3.45083102L7.66716613 3.45083102C7.52619989 3.45083102 7.40872802 3.54224377 7.38523365 3.67936288L4.73036951 15.7915512C4.68338077 16.0429363 4.42494266 16.248615 4.16650456 16.248615L1.81706727 16.248615C1.55862917 16.248615 1.39416856 16.0429363 1.4411573 15.7915512L4.09602144 3.67936288C4.11951582 3.54224377 4.0490327 3.45083102 3.90806646 3.45083102zM16.5187889 3.67936288L15.9314296 6.42174515C15.9079352 6.55886427 15.9549239 6.65027701 16.0958902 6.65027701L21.8520115 6.65027701C22.1104496 6.65027701 22.2749103 6.85595568 22.2279215 7.10734072L21.7345397 9.39265928C21.6875509 9.64404432 21.4291128 9.84972299 21.1706747 9.84972299L15.4145534 9.84972299C15.2735871 9.84972299 15.1326209 9.94113573 15.1091265 10.0782548L14.5217672 12.8206371C14.4982728 12.9577562 14.5687559 13.049169 14.7097222 13.049169L20.747776 13.049169C21.0062141 13.049169 21.1706747 13.2548476 21.123686 13.5062327L20.6068098 15.7915512C20.559821 16.0429363 20.3013829 16.248615 20.0429448 16.248615L10.9506225 16.248615C10.6921844 16.248615 10.5512182 16.0429363 10.5982069 15.7915512L13.8874191.708448753C13.9344079.457063712 14.192846.251385042 14.4512841.251385042L23.4496289.251385042C23.708067.251385042 23.8725276.457063712 23.8255389.708448753L23.3086627 2.99376731C23.2616739 3.24515235 23.0032358 3.45083102 22.7447977 3.45083102L16.8007214 3.45083102C16.6597551 3.45083102 16.5422833 3.54224377 16.5187889 3.67936288zM34.7739167 11.5637119C34.0690855 14.3289474 31.9780863 16.5 28.5714022 16.5 25.0472463 16.5 23.332157 14.1918283 23.6140895 11.449446 23.8020445 9.52977839 24.3424151 6.97022161 25.0002575 5.05055402 25.9400324 2.30817175 27.5611442 0 31.2262663 0 34.4919842 0 36.6534665 2.26246537 36.2070734 4.93628809 36.1365903 5.3933518 35.8076691 5.62188366 35.3377816 5.62188366L33.4347374 5.62188366C32.9883443 5.62188366 32.8238837 5.37049861 32.8708724 5.05055402 32.9883443 4.04501385 32.6359287 3.22229917 30.9913226 3.22229917 29.5581659 3.22229917 28.6653797 4.04501385 28.3129641 5.05055402 27.6551217 6.97022161 27.1147511 9.52977839 26.9267961 11.449446 26.8093242 12.4549861 27.3731892 13.2777008 28.8063459 13.2777008 30.3334802 13.2777008 31.1322888 12.4549861 31.4847044 11.449446 31.5786819 11.1295014 31.8606144 10.8781163 32.3070075 10.8781163L34.2100517 10.8781163C34.6799392 10.8781163 34.8913885 11.1066482 34.7739167 11.5637119zM42.480071.708448753L41.2348692 6.42174515C41.2113748 6.55886427 41.2583636 6.65027701 41.3993298 6.65027701L44.9704745 6.65027701C45.1114407 6.65027701 45.252407 6.55886427 45.2759013 6.42174515L46.5211031.708448753C46.5680919.457063712 46.82653.251385042 47.0849681.251385042L49.4344054.251385042C49.6928435.251385042 49.8573041.457063712 49.8103153.708448753L46.4976087 15.7915512C46.45062 16.0429363 46.1921819 16.248615 45.9337438 16.248615L43.5843065 16.248615C43.3258684 16.248615 43.1614078 16.0429363 43.2083965 15.7915512L44.4535983 10.0782548C44.4770927 9.94113573 44.4301039 9.84972299 44.2891377 9.84972299L40.717993 9.84972299C40.5770268 9.84972299 40.4360605 9.94113573 40.4125662 10.0782548L39.1673644 15.7915512C39.1203756 16.0429363 38.7444657 16.248615 38.4860276 16.248615L36.2540621 16.248615C35.995624 16.248615 35.8546578 16.0429363 35.9016466 15.7915512L39.1908588.708448753C39.2378475.457063712 39.4962856.251385042 39.7547237.251385042L42.104161.251385042C42.3625991.251385042 42.5270597.457063712 42.480071.708448753zM55.7543917.662742382L57.3050203 9.34695291C57.3285147 9.48407202 57.5164696 9.43836565 57.539964 9.30124654L59.4195138.708448753C59.4665026.457063712 59.7249407.251385042 59.9833788.251385042L62.3328161.251385042C62.5912542.251385042 62.7557148.457063712 62.7087261.708448753L59.3960195 15.7915512C59.3490307 16.0429363 59.0905926 16.248615 58.8321545 16.248615L56.2947622 16.248615C55.8953579 16.248615 55.777886 16.0429363 55.7543917 15.8601108L54.0627968 7.83864266C54.0393024 7.70152355 53.8748418 7.74722992 53.8513475 7.88434903L52.1127639 15.7915512C52.0657751 16.0429363 51.807337 16.248615 51.5488989 16.248615L49.1994616 16.248615C48.9410235 16.248615 48.8000573 16.0429363 48.847046 15.7915512L52.1362582.708448753C52.183247.457063712 52.4416851.251385042 52.7001232.251385042L55.2610098.251385042C55.6134254.251385042 55.7308973.457063712 55.7543917.662742382zM69.7805323 3.22229917C68.3473756 3.22229917 67.4545894 4.04501385 67.1021738 5.05055402 66.4443313 6.97022161 65.9039608 9.52977839 65.7160058 11.449446 65.5985339 12.4549861 66.1623989 13.2777008 67.5955556 13.2777008 69.1226899 13.2777008 69.9214985 12.4549861 70.2739141 11.449446 70.9317566 9.52977839 71.4721271 6.97022161 71.6600821 5.05055402 71.777554 4.04501385 71.213689 3.22229917 69.7805323 3.22229917zM70.015476 0C73.3281826 0 75.2547212 2.30817175 74.9727887 5.05055402 74.7848337 6.97022161 74.2444632 9.52977839 73.5866207 11.449446 72.6468458 14.1918283 71.0257341 16.5 67.3606119 16.5 63.836456 16.5 62.1213667 14.1918283 62.4032992 11.449446 62.5912542 9.52977839 63.1316248 6.97022161 63.7894672 5.05055402 64.7292421 2.30817175 66.3503539 0 70.015476 0z"/>
  </g>
</svg>
