<svg xmlns="http://www.w3.org/2000/svg" width="75" height="39" viewBox="0 0 75 39">
  <g fill="none" fill-rule="evenodd">
    <g transform="translate(0 24)">
      <polygon fill="#000000" points="0 0 1.136 0 75 0 75 13.077 73.125 15 0 15"/>
      <path fill="#FFFFFF" d="M4.89963504,3.84615385 L8.12956204,3.84615385 L9.27919708,5.05451242 L9.27919708,9.94548758 L8.12956204,11.1538462 L4.89963504,11.1538462 L3.75,9.94548758 L3.75,5.05451242 L4.89963504,3.84615385 Z M7.91058394,5.05451242 L5.11861314,5.05451242 C4.99817518,5.05451242 4.89963504,5.15808601 4.89963504,5.28467595 L4.89963504,9.71532405 C4.89963504,9.84191399 4.99817518,9.94548758 5.11861314,9.94548758 L7.91058394,9.94548758 C8.0310219,9.94548758 8.12956204,9.84191399 8.12956204,9.71532405 L8.12956204,5.28467595 C8.12956204,5.15808601 8.0310219,5.05451242 7.91058394,5.05451242 Z M13.1113139,3.84615385 L18.5857664,3.84615385 L18.5857664,8.10417929 L16.6478102,8.10417929 L18.5857664,11.1538462 L17.2718978,11.1538462 L15.3339416,8.10417929 L14.2609489,8.10417929 L14.2609489,11.1538462 L13.1113139,11.1538462 L13.1113139,3.84615385 Z M17.2171533,5.05451242 L14.2609489,5.05451242 L14.2609489,6.89582071 L17.2171533,6.89582071 C17.3375912,6.89582071 17.4361314,6.79224712 17.4361314,6.66565718 L17.4361314,5.28467595 C17.4361314,5.15808601 17.3375912,5.05451242 17.2171533,5.05451242 Z M22.4178832,3.84615385 L22.4178832,11.1538462 L23.5675182,11.1538462 L23.5675182,3.84615385 L22.4178832,3.84615385 Z M28.5492701,3.84615385 L27.399635,5.05451242 L27.399635,9.94548758 L28.5492701,11.1538462 L31.7791971,11.1538462 L32.9288321,9.94548758 L32.9288321,8.10417929 L31.7791971,6.89582071 L30.7390511,6.89582071 L30.7390511,8.10417929 L31.7791971,8.10417929 L31.7791971,9.71532405 C31.7791971,9.84191399 31.6806569,9.94548758 31.560219,9.94548758 L28.7682482,9.94548758 C28.6478102,9.94548758 28.5492701,9.84191399 28.5492701,9.71532405 L28.5492701,5.28467595 C28.5492701,5.15808601 28.6478102,5.05451242 28.7682482,5.05451242 L31.560219,5.05451242 C31.6806569,5.05451242 31.7791971,5.15808601 31.7791971,5.28467595 L31.7791971,6.3549364 L32.9288321,6.3549364 L32.9288321,5.05451242 L31.7791971,3.84615385 L28.5492701,3.84615385 Z M36.7609489,3.84615385 L36.7609489,11.1538462 L37.9105839,11.1538462 L37.9105839,3.84615385 L36.7609489,3.84615385 Z M46.4507299,3.84615385 L46.4507299,9.25499697 L42.9032847,3.84615385 L41.7427007,3.84615385 L41.7427007,11.1538462 L42.8923358,11.1538462 L42.8923358,5.74500303 L46.439781,11.1538462 L47.600365,11.1538462 L47.600365,3.84615385 L46.4507299,3.84615385 Z M52.5821168,3.84615385 L54.8266423,3.84615385 L55.9762774,5.05451242 L55.9762774,11.1538462 L54.8266423,11.1538462 L54.8266423,8.10417929 L52.5821168,8.10417929 L52.5821168,11.1538462 L51.4324818,11.1538462 L51.4324818,5.05451242 L52.5821168,3.84615385 Z M54.6076642,5.05451242 L52.8010949,5.05451242 C52.6806569,5.05451242 52.5821168,5.15808601 52.5821168,5.28467595 L52.5821168,6.89582071 L54.8266423,6.89582071 L54.8266423,5.28467595 C54.8266423,5.15808601 54.7281022,5.05451242 54.6076642,5.05451242 Z M59.8083942,3.84615385 L59.8083942,11.1538462 L62.709854,11.1538462 L62.709854,9.94548758 L60.9580292,9.94548758 L60.9580292,3.84615385 L59.8083942,3.84615385 Z M67.6916058,3.84615385 L66.5419708,5.05451242 L66.5419708,6.26287099 L70.100365,8.44942459 L70.100365,9.71532405 C70.100365,9.84191399 70.0018248,9.94548758 69.8813869,9.94548758 L67.9105839,9.94548758 C67.790146,9.94548758 67.6916058,9.84191399 67.6916058,9.71532405 L67.6916058,8.96729255 L66.5419708,8.96729255 L66.5419708,9.94548758 L67.6916058,11.1538462 L70.100365,11.1538462 L71.25,9.94548758 L71.25,8.0466384 L67.6916058,5.8600848 L67.6916058,5.28467595 C67.6916058,5.15808601 67.790146,5.05451242 67.9105839,5.05451242 L69.8813869,5.05451242 C70.0018248,5.05451242 70.100365,5.15808601 70.100365,5.28467595 L70.100365,6.03270745 L71.25,6.03270745 L71.25,5.05451242 L70.100365,3.84615385 L67.6916058,3.84615385 Z"/>
    </g>
    <path fill="#000000" d="M3.90806646,3.45083102 L0.383910522,3.45083102 C0.12547242,3.45083102 -0.0389881903,3.24515235 0.00800055553,2.99376731 L0.52487676,0.708448753 C0.571865506,0.457063712 0.830303608,0.251385042 1.08874171,0.251385042 L11.6612095,0.251385042 C11.9196476,0.251385042 12.0841082,0.457063712 12.0371195,0.708448753 L11.5202433,2.99376731 C11.4732545,3.24515235 11.2148164,3.45083102 10.9563783,3.45083102 L7.66716613,3.45083102 C7.52619989,3.45083102 7.40872802,3.54224377 7.38523365,3.67936288 L4.73036951,15.7915512 C4.68338077,16.0429363 4.42494266,16.248615 4.16650456,16.248615 L1.81706727,16.248615 C1.55862917,16.248615 1.39416856,16.0429363 1.4411573,15.7915512 L4.09602144,3.67936288 C4.11951582,3.54224377 4.0490327,3.45083102 3.90806646,3.45083102 Z M16.5187889,3.67936288 L15.9314296,6.42174515 C15.9079352,6.55886427 15.9549239,6.65027701 16.0958902,6.65027701 L21.8520115,6.65027701 C22.1104496,6.65027701 22.2749103,6.85595568 22.2279215,7.10734072 L21.7345397,9.39265928 C21.6875509,9.64404432 21.4291128,9.84972299 21.1706747,9.84972299 L15.4145534,9.84972299 C15.2735871,9.84972299 15.1326209,9.94113573 15.1091265,10.0782548 L14.5217672,12.8206371 C14.4982728,12.9577562 14.5687559,13.049169 14.7097222,13.049169 L20.747776,13.049169 C21.0062141,13.049169 21.1706747,13.2548476 21.123686,13.5062327 L20.6068098,15.7915512 C20.559821,16.0429363 20.3013829,16.248615 20.0429448,16.248615 L10.9506225,16.248615 C10.6921844,16.248615 10.5512182,16.0429363 10.5982069,15.7915512 L13.8874191,0.708448753 C13.9344079,0.457063712 14.192846,0.251385042 14.4512841,0.251385042 L23.4496289,0.251385042 C23.708067,0.251385042 23.8725276,0.457063712 23.8255389,0.708448753 L23.3086627,2.99376731 C23.2616739,3.24515235 23.0032358,3.45083102 22.7447977,3.45083102 L16.8007214,3.45083102 C16.6597551,3.45083102 16.5422833,3.54224377 16.5187889,3.67936288 Z M34.7739167,11.5637119 C34.0690855,14.3289474 31.9780863,16.5 28.5714022,16.5 C25.0472463,16.5 23.332157,14.1918283 23.6140895,11.449446 C23.8020445,9.52977839 24.3424151,6.97022161 25.0002575,5.05055402 C25.9400324,2.30817175 27.5611442,0 31.2262663,0 C34.4919842,0 36.6534665,2.26246537 36.2070734,4.93628809 C36.1365903,5.3933518 35.8076691,5.62188366 35.3377816,5.62188366 L33.4347374,5.62188366 C32.9883443,5.62188366 32.8238837,5.37049861 32.8708724,5.05055402 C32.9883443,4.04501385 32.6359287,3.22229917 30.9913226,3.22229917 C29.5581659,3.22229917 28.6653797,4.04501385 28.3129641,5.05055402 C27.6551217,6.97022161 27.1147511,9.52977839 26.9267961,11.449446 C26.8093242,12.4549861 27.3731892,13.2777008 28.8063459,13.2777008 C30.3334802,13.2777008 31.1322888,12.4549861 31.4847044,11.449446 C31.5786819,11.1295014 31.8606144,10.8781163 32.3070075,10.8781163 L34.2100517,10.8781163 C34.6799392,10.8781163 34.8913885,11.1066482 34.7739167,11.5637119 Z M42.480071,0.708448753 L41.2348692,6.42174515 C41.2113748,6.55886427 41.2583636,6.65027701 41.3993298,6.65027701 L44.9704745,6.65027701 C45.1114407,6.65027701 45.252407,6.55886427 45.2759013,6.42174515 L46.5211031,0.708448753 C46.5680919,0.457063712 46.82653,0.251385042 47.0849681,0.251385042 L49.4344054,0.251385042 C49.6928435,0.251385042 49.8573041,0.457063712 49.8103153,0.708448753 L46.4976087,15.7915512 C46.45062,16.0429363 46.1921819,16.248615 45.9337438,16.248615 L43.5843065,16.248615 C43.3258684,16.248615 43.1614078,16.0429363 43.2083965,15.7915512 L44.4535983,10.0782548 C44.4770927,9.94113573 44.4301039,9.84972299 44.2891377,9.84972299 L40.717993,9.84972299 C40.5770268,9.84972299 40.4360605,9.94113573 40.4125662,10.0782548 L39.1673644,15.7915512 C39.1203756,16.0429363 38.7444657,16.248615 38.4860276,16.248615 L36.2540621,16.248615 C35.995624,16.248615 35.8546578,16.0429363 35.9016466,15.7915512 L39.1908588,0.708448753 C39.2378475,0.457063712 39.4962856,0.251385042 39.7547237,0.251385042 L42.104161,0.251385042 C42.3625991,0.251385042 42.5270597,0.457063712 42.480071,0.708448753 Z M55.7543917,0.662742382 L57.3050203,9.34695291 C57.3285147,9.48407202 57.5164696,9.43836565 57.539964,9.30124654 L59.4195138,0.708448753 C59.4665026,0.457063712 59.7249407,0.251385042 59.9833788,0.251385042 L62.3328161,0.251385042 C62.5912542,0.251385042 62.7557148,0.457063712 62.7087261,0.708448753 L59.3960195,15.7915512 C59.3490307,16.0429363 59.0905926,16.248615 58.8321545,16.248615 L56.2947622,16.248615 C55.8953579,16.248615 55.777886,16.0429363 55.7543917,15.8601108 L54.0627968,7.83864266 C54.0393024,7.70152355 53.8748418,7.74722992 53.8513475,7.88434903 L52.1127639,15.7915512 C52.0657751,16.0429363 51.807337,16.248615 51.5488989,16.248615 L49.1994616,16.248615 C48.9410235,16.248615 48.8000573,16.0429363 48.847046,15.7915512 L52.1362582,0.708448753 C52.183247,0.457063712 52.4416851,0.251385042 52.7001232,0.251385042 L55.2610098,0.251385042 C55.6134254,0.251385042 55.7308973,0.457063712 55.7543917,0.662742382 Z M69.7805323,3.22229917 C68.3473756,3.22229917 67.4545894,4.04501385 67.1021738,5.05055402 C66.4443313,6.97022161 65.9039608,9.52977839 65.7160058,11.449446 C65.5985339,12.4549861 66.1623989,13.2777008 67.5955556,13.2777008 C69.1226899,13.2777008 69.9214985,12.4549861 70.2739141,11.449446 C70.9317566,9.52977839 71.4721271,6.97022161 71.6600821,5.05055402 C71.777554,4.04501385 71.213689,3.22229917 69.7805323,3.22229917 Z M70.015476,0 C73.3281826,0 75.2547212,2.30817175 74.9727887,5.05055402 C74.7848337,6.97022161 74.2444632,9.52977839 73.5866207,11.449446 C72.6468458,14.1918283 71.0257341,16.5 67.3606119,16.5 C63.836456,16.5 62.1213667,14.1918283 62.4032992,11.449446 C62.5912542,9.52977839 63.1316248,6.97022161 63.7894672,5.05055402 C64.7292421,2.30817175 66.3503539,0 70.015476,0 Z"/>
  </g>
</svg>
